<svg width="12" height="12" viewBox="0 0 12 12" fill="none" xmlns="http://www.w3.org/2000/svg">
<path fill-rule="evenodd" clip-rule="evenodd" d="M3.20999 2.41501C3.10336 2.31565 2.96233 2.26155 2.8166 2.26413C2.67088 2.2667 2.53184 2.32573 2.42878 2.42879C2.32572 2.53185 2.26668 2.67089 2.26411 2.81661C2.26154 2.96234 2.31563 3.10338 2.41499 3.21001L5.20499 6.00001L2.41499 8.79001C2.35973 8.8415 2.3154 8.9036 2.28466 8.9726C2.25391 9.0416 2.23738 9.11609 2.23605 9.19162C2.23472 9.26714 2.24861 9.34216 2.2769 9.41221C2.30519 9.48225 2.3473 9.54587 2.40071 9.59929C2.45413 9.6527 2.51775 9.69481 2.5878 9.7231C2.65784 9.75139 2.73286 9.76528 2.80839 9.76395C2.88391 9.76262 2.9584 9.74609 3.0274 9.71534C3.0964 9.6846 3.1585 9.64027 3.20999 9.58501L5.99999 6.79501L8.78999 9.58501C8.84149 9.64027 8.90359 9.6846 8.97259 9.71534C9.04159 9.74609 9.11607 9.76262 9.1916 9.76395C9.26713 9.76528 9.34215 9.75139 9.41219 9.7231C9.48223 9.69481 9.54586 9.6527 9.59927 9.59929C9.65269 9.54587 9.69479 9.48225 9.72309 9.41221C9.75138 9.34216 9.76527 9.26714 9.76394 9.19162C9.7626 9.11609 9.74607 9.0416 9.71533 8.9726C9.68458 8.9036 9.64026 8.8415 9.58499 8.79001L6.79499 6.00001L9.58499 3.21001C9.68435 3.10338 9.73845 2.96234 9.73587 2.81661C9.7333 2.67089 9.67427 2.53185 9.57121 2.42879C9.46815 2.32573 9.32911 2.2667 9.18338 2.26413C9.03766 2.26155 8.89662 2.31565 8.78999 2.41501L5.99999 5.20501L3.20999 2.41501Z" fill="black" style="fill:black;fill-opacity:1;"/>
</svg>
