<svg width="12" height="12" viewBox="0 0 12 12" fill="none" xmlns="http://www.w3.org/2000/svg">
<g clip-path="url(#clip0_4142_8807)">
<path fill-rule="evenodd" clip-rule="evenodd" d="M6.375 6.28425L6.705 5.95425L10.125 2.53425V1.875H1.875V2.53425L5.295 5.95425L5.625 6.28425V9.28425L6.375 8.53425V6.28425ZM7.5 9L5.625 10.875L4.5 12V6.75L0.96975 3.21975C0.829088 3.07913 0.750042 2.8884 0.75 2.6895V1.5C0.75 1.30109 0.829018 1.11032 0.96967 0.96967C1.11032 0.829018 1.30109 0.75 1.5 0.75H10.5C10.6989 0.75 10.8897 0.829018 11.0303 0.96967C11.171 1.11032 11.25 1.30109 11.25 1.5V2.6895C11.25 2.8884 11.1709 3.07913 11.0302 3.21975L7.5 6.75V9Z" fill="black" style="fill:black;fill-opacity:1;"/>
</g>
<defs>
<clipPath id="clip0_4142_8807">
<rect width="12" height="12" fill="white" style="fill:white;fill-opacity:1;"/>
</clipPath>
</defs>
</svg>
