<svg width="12" height="12" viewBox="0 0 12 12" fill="none" xmlns="http://www.w3.org/2000/svg">
<path fill-rule="evenodd" clip-rule="evenodd" d="M6.5625 2.0625C6.5625 1.91332 6.50324 1.77024 6.39775 1.66475C6.29226 1.55926 6.14918 1.5 6 1.5C5.85082 1.5 5.70774 1.55926 5.60225 1.66475C5.49676 1.77024 5.4375 1.91332 5.4375 2.0625V5.4375H2.0625C1.91332 5.4375 1.77024 5.49676 1.66475 5.60225C1.55926 5.70774 1.5 5.85082 1.5 6C1.5 6.14918 1.55926 6.29226 1.66475 6.39775C1.77024 6.50324 1.91332 6.5625 2.0625 6.5625H5.4375V9.9375C5.4375 10.0867 5.49676 10.2298 5.60225 10.3352C5.70774 10.4407 5.85082 10.5 6 10.5C6.14918 10.5 6.29226 10.4407 6.39775 10.3352C6.50324 10.2298 6.5625 10.0867 6.5625 9.9375V6.5625H9.9375C10.0867 6.5625 10.2298 6.50324 10.3352 6.39775C10.4407 6.29226 10.5 6.14918 10.5 6C10.5 5.85082 10.4407 5.70774 10.3352 5.60225C10.2298 5.49676 10.0867 5.4375 9.9375 5.4375H6.5625V2.0625Z" fill="black" style="fill:black;fill-opacity:1;"/>
</svg>
